<?xml version="1.0" standalone="no"?>
<!DOCTYPE svg PUBLIC "-//W3C//DTD SVG 20010904//EN"
 "http://www.w3.org/TR/2001/REC-SVG-20010904/DTD/svg10.dtd">
<svg version="1.0" xmlns="http://www.w3.org/2000/svg"
 width="256.000000pt" height="256.000000pt" viewBox="0 0 256.000000 256.000000"
 preserveAspectRatio="xMidYMid meet">
<metadata>
Created by potrace 1.16, written by Peter Selinger 2001-2019
</metadata>
<g transform="translate(0.000000,256.000000) scale(0.100000,-0.100000)"
fill="#000000" stroke="none">
<path d="M1160 2180 c-302 -42 -567 -230 -709 -500 -79 -152 -96 -224 -95
-415 0 -144 3 -169 27 -248 50 -163 132 -302 245 -415 167 -165 373 -257 607
-269 373 -20 728 199 890 549 248 538 -70 1158 -659 1284 -91 19 -224 25 -306
14z m287 -66 c450 -93 754 -497 703 -933 -27 -231 -138 -443 -306 -584 -133
-113 -286 -181 -459 -207 -186 -28 -403 23 -574 134 -187 121 -322 309 -383
532 -31 116 -31 319 0 427 80 279 297 509 567 602 136 46 313 58 452 29z"/>
<path d="M1068 1978 c-143 -48 -178 -63 -178 -78 0 -26 25 -32 46 -9 15 17 32
19 164 19 95 0 150 4 157 11 16 16 45 3 41 -18 -3 -16 -18 -17 -160 -14 -196
4 -200 2 -196 -82 2 -47 7 -62 18 -62 11 0 16 14 18 53 2 37 7 52 15 49 7 -2
75 -25 153 -51 l141 -47 99 36 c240 84 279 101 282 116 2 13 -37 29 -187 78
-104 33 -200 61 -213 60 -12 0 -103 -28 -200 -61z"/>
<path d="M732 1797 c-29 -31 -28 -68 3 -97 14 -13 25 -29 25 -37 0 -7 9 -13
20 -13 11 0 20 7 20 15 0 8 11 25 25 39 32 32 32 60 0 91 -30 31 -65 32 -93 2z"/>
<path d="M1707 1804 c-4 -4 -7 -28 -7 -53 0 -34 5 -51 20 -64 22 -18 50 -23
50 -8 0 6 19 11 42 13 36 3 44 7 52 31 6 17 6 37 0 55 -9 26 -13 27 -80 30
-38 1 -73 0 -77 -4z"/>
<path d="M1060 1745 c0 -66 58 -89 225 -89 111 0 171 12 200 41 19 18 21 86 3
81 -7 -2 -58 -18 -114 -37 l-100 -34 -107 36 -107 36 0 -34z"/>
<path d="M797 1592 c-15 -16 -17 -53 -17 -309 0 -268 1 -291 18 -306 16 -15
45 -17 195 -17 l177 0 -6 -27 c-10 -42 -12 -43 -63 -43 -55 0 -68 -11 -99 -82
l-21 -48 295 0 c196 0 294 3 294 10 0 22 -50 108 -65 114 -9 3 -37 6 -61 6
-28 0 -44 4 -44 13 0 6 -3 22 -6 35 l-6 22 179 0 c162 0 182 2 196 18 15 16
17 53 17 309 0 268 -1 291 -18 306 -17 15 -65 17 -484 17 -438 0 -466 -1 -481
-18z m914 -32 c18 -10 19 -23 19 -235 l0 -225 -455 0 -455 0 0 219 c0 186 2
222 16 235 14 14 67 16 435 16 271 0 427 -4 440 -10z m17 -527 c-3 -16 -21
-18 -185 -21 -174 -2 -183 -2 -193 18 -11 20 -8 20 185 20 182 0 196 -1 193
-17z m-228 -197 c0 -2 3 -11 6 -20 5 -14 -18 -16 -225 -16 -127 0 -231 2 -231
4 0 2 3 11 6 20 5 14 35 16 225 16 120 0 219 -2 219 -4z"/>
<path d="M522 1358 c-18 -18 -16 -188 2 -188 7 0 19 7 26 15 8 10 31 15 66 15
63 0 84 21 84 85 0 22 -7 51 -16 63 -13 19 -24 22 -83 22 -39 0 -72 -5 -79
-12z"/>
<path d="M1870 1351 c-16 -31 -12 -117 6 -135 10 -11 34 -16 68 -16 35 0 58
-5 66 -15 7 -8 19 -15 26 -15 11 0 14 19 14 84 0 108 -7 116 -100 116 -58 0
-71 -3 -80 -19z"/>
</g>
</svg>
